HIERARCHY
ROOT root
{
	OFFSET 0.000000 0.000000 0.000000
	CHANNELS 6 Xposition Yposition Zposition Zrotation Yrotation Xrotation
	JOINT lhip
	{
		OFFSET 0.058581 -0.082280 -0.017664
		CHANNELS 3 Zrotation Yrotation Xrotation
		JOINT lknee
		{
			OFFSET 0.043451 -0.386469 0.008037
			CHANNELS 3 Zrotation Yrotation Xrotation
			JOINT lankle
			{
				OFFSET -0.014790 -0.426874 -0.037428
				CHANNELS 3 Zrotation Yrotation Xrotation
				JOINT ltoe
				{
					OFFSET 0.041054 -0.060286 0.122042
					CHANNELS 3 Zrotation Yrotation Xrotation
					End Site
					{
						OFFSET 0.000000 0.000000 0.000000
					}
				}
			}
		}
	}
	JOINT rhip
	{
		OFFSET -0.060310 -0.090513 -0.013543
		CHANNELS 3 Zrotation Yrotation Xrotation
		JOINT rknee
		{
			OFFSET -0.043257 -0.383688 -0.004843
			CHANNELS 3 Zrotation Yrotation Xrotation
			JOINT rankle
			{
				OFFSET 0.019056 -0.420046 -0.034562
				CHANNELS 3 Zrotation Yrotation Xrotation
				JOINT rtoe
				{
					OFFSET -0.034840 -0.062106 0.130323
					CHANNELS 3 Zrotation Yrotation Xrotation
					End Site
					{
						OFFSET 0.000000 0.000000 0.000000
					}
				}
			}
		}
	}
	JOINT lowerback
	{
		OFFSET 0.004439 0.124404 -0.038385
		CHANNELS 3 Zrotation Yrotation Xrotation
		JOINT upperback
		{
			OFFSET 0.004488 0.137956 0.026820
			CHANNELS 3 Zrotation Yrotation Xrotation
			JOINT chest
			{
				OFFSET -0.002265 0.056032 0.002855
				CHANNELS 3 Zrotation Yrotation Xrotation
				JOINT lowerneck
				{
					OFFSET -0.013390 0.211636 -0.033468
					CHANNELS 3 Zrotation Yrotation Xrotation
					JOINT upperneck
					{
						OFFSET 0.010113 0.088937 0.050410
						CHANNELS 3 Zrotation Yrotation Xrotation
						End Site
						{
							OFFSET 0.000000 0.000000 0.000000
						}
					}
				}
				JOINT lclavicle
				{
					OFFSET 0.071702 0.114000 -0.018898
					CHANNELS 3 Zrotation Yrotation Xrotation
					JOINT lshoulder
					{
						OFFSET 0.122921 0.045205 -0.019046
						CHANNELS 3 Zrotation Yrotation Xrotation
						JOINT lelbow
						{
							OFFSET 0.255332 -0.015649 -0.022946
							CHANNELS 3 Zrotation Yrotation Xrotation
							JOINT lwrist
							{
								OFFSET 0.265709 0.012698 -0.007375
								CHANNELS 3 Zrotation Yrotation Xrotation
								End Site
								{
									OFFSET 0.000000 0.000000 0.000000
								}
							}
						}
					}
				}
				JOINT rclavicle
				{
					OFFSET -0.082954 0.112472 -0.023707
					CHANNELS 3 Zrotation Yrotation Xrotation
					JOINT rshoulder
					{
						OFFSET -0.113228 0.046853 -0.008472
						CHANNELS 3 Zrotation Yrotation Xrotation
						JOINT relbow
						{
							OFFSET -0.260127 -0.014369 -0.031269
							CHANNELS 3 Zrotation Yrotation Xrotation
							JOINT rwrist
							{
								OFFSET -0.269108 0.006794 -0.006027
								CHANNELS 3 Zrotation Yrotation Xrotation
								End Site
								{
									OFFSET 0.000000 0.000000 0.000000
								}
							}
						}
					}
				}
			}
		}
	}
}
MOTION
Frames: 13
Frame Time: 0.033333
0.603670 0.166198 0.994271 93.319009 -2.825019 89.522619 0.747993 0.719259 1.041164 -3.337733 -7.620493 6.914279 3.314543 7.623544 -11.504718 0.000000 -0.000000 0.000000 -2.354260 -3.965164 -5.565802 1.077760 -6.448006 17.601038 1.530303 -9.645480 -12.752876 0.000000 -0.000000 0.000000 1.913391 -1.182753 8.746157 0.726041 -1.838958 -1.223849 -1.067331 -1.526140 2.197629 -1.554330 5.728551 -4.819805 -5.089827 0.624835 7.059239 -25.379946 4.731222 2.804981 -56.187085 -7.928468 11.018020 3.558773 -33.681746 14.455864 -8.201667 -2.799998 -5.490212 29.467677 -1.994379 1.512127 54.813857 5.942539 7.311703 -16.453361 9.730526 -15.921167 8.838735 0.663259 -9.695618 
0.609141 0.165818 0.993885 93.795740 -2.935537 89.821081 0.724282 0.694640 1.074240 -3.291832 -8.078702 6.779370 3.352057 7.415622 -11.531604 0.000000 -0.000000 0.000000 -2.444411 -4.348209 -5.120551 1.193720 -6.611992 16.968594 1.587432 -9.842137 -12.964443 0.000000 -0.000000 0.000000 2.041989 -1.408586 8.852640 0.791363 -2.025833 -1.797074 -1.000104 -1.777965 2.065130 -1.549810 5.778078 -4.428491 -5.174385 1.029020 7.437869 -25.396910 5.300788 2.680159 -56.188966 -7.859313 11.038769 2.711506 -33.785744 15.630632 -8.332880 -2.828733 -5.338307 28.976393 -3.285497 1.592693 54.969597 4.263616 7.365033 -15.622072 9.256609 -14.705388 8.960033 0.429801 -9.286214 
0.613093 0.165202 0.993475 94.357252 -3.037976 90.054555 0.854439 0.506237 0.910903 -3.513959 -8.347913 6.940055 3.294510 7.157266 -11.796143 0.000000 -0.000000 0.000000 -2.434881 -4.686406 -4.870826 1.164732 -6.743363 16.633924 1.669456 -10.098385 -13.149540 0.000000 -0.000000 0.000000 2.131352 -1.441206 8.660857 0.848924 -2.270403 -1.814719 -0.960117 -2.046112 2.238397 -1.640707 5.514175 -4.256508 -4.986520 1.344728 7.454126 -25.396724 5.416297 2.653370 -56.362156 -8.099806 10.987872 2.707841 -34.006088 15.703668 -8.048561 -2.797804 -5.471083 28.732470 -4.168789 1.656043 54.980333 2.791009 7.213070 -15.063985 8.656646 -13.873081 9.124984 0.297780 -9.220789 
0.616666 0.164620 0.993474 94.833763 -3.222370 90.374146 0.833225 0.364450 0.842596 -3.623543 -8.847764 6.675744 3.086591 7.117598 -11.741506 0.000000 -0.000000 0.000000 -2.491448 -4.840060 -4.832594 1.130377 -6.831820 16.380162 1.764227 -10.435466 -13.321419 0.000000 -0.000000 0.000000 2.216409 -1.553140 8.604780 0.859523 -2.400060 -1.976282 -1.005298 -2.270738 2.448474 -1.722921 5.504769 -4.456486 -4.675252 1.335082 7.357263 -25.552681 5.672872 2.785272 -56.126745 -8.321865 10.934661 2.650097 -34.630635 15.649957 -7.691188 -2.933113 -5.767140 28.456712 -5.163198 1.576380 54.820867 1.169363 7.297569 -14.375999 8.405824 -13.078922 9.312414 0.037542 -9.083699 
0.620438 0.163780 0.993315 94.825687 -3.356767 90.730655 0.830135 0.414442 0.997619 -3.630677 -9.084398 6.024522 3.115725 7.067352 -11.555585 0.000000 -0.000000 0.000000 -2.514467 -4.891765 -4.885882 1.172936 -6.706179 16.137024 1.655124 -10.630213 -13.483688 0.000000 -0.000000 0.000000 2.337696 -1.560606 8.355479 0.833524 -2.398764 -2.081820 -1.064093 -2.483532 2.573839 -1.676428 5.437369 -4.346360 -4.372258 1.535578 7.004128 -25.560492 6.205907 2.611856 -56.048544 -8.331016 10.860528 2.506500 -35.139329 15.706949 -7.695418 -2.946479 -6.046414 28.036953 -6.045675 1.783555 55.075779 -0.262919 7.100178 -14.268124 7.911849 -12.860551 9.685279 -0.095884 -9.082104 
0.622389 0.162792 0.993535 95.082519 -3.489701 91.033450 0.840995 0.369611 0.692481 -3.643127 -9.377810 6.107690 3.041209 6.737235 -11.367538 0.000000 -0.000000 0.000000 -2.430332 -4.848424 -5.103501 1.045166 -6.763951 16.135641 1.686887 -11.009975 -13.708748 0.000000 -0.000000 0.000000 2.447680 -1.700752 9.041644 0.756479 -2.435198 -2.741265 -1.132969 -2.626318 2.538798 -1.497909 5.393117 -4.831064 -4.019805 1.685797 7.187397 -25.433172 6.836912 2.410998 -55.886789 -8.330659 10.709778 2.092682 -35.904607 16.296868 -7.508496 -2.935763 -6.096610 27.632145 -7.204444 1.551354 55.193456 -1.765734 7.041892 -13.991605 7.683443 -12.193751 9.948274 -0.170686 -8.835065 
0.625440 0.161969 0.993221 95.193783 -3.618339 91.202634 0.868044 0.341342 0.707617 -3.746033 -9.565822 6.043202 2.828930 6.606870 -11.347079 0.000000 -0.000000 0.000000 -2.490751 -5.145463 -4.970018 1.095076 -6.666979 15.936126 1.585153 -11.019694 -13.854088 0.000000 -0.000000 0.000000 2.494831 -1.730642 8.674931 0.753818 -2.670895 -2.371895 -1.115995 -2.739820 2.826572 -1.630190 5.255547 -4.771390 -3.741980 1.939383 6.687063 -25.309082 6.683068 2.573984 -55.799207 -8.395985 10.603095 2.169685 -36.074961 15.965294 -7.190529 -3.057726 -6.346713 27.041116 -7.700987 1.783749 55.420611 -3.096240 6.798000 -13.707747 7.657073 -11.752873 10.195270 -0.218670 -9.208333 
0.626337 0.161101 0.993574 95.065285 -3.719511 91.468911 0.865367 0.187424 0.450091 -3.866380 -9.570025 6.093256 2.679149 6.822111 -11.372004 0.000000 -0.000000 0.000000 -2.461459 -4.939070 -5.112233 1.111991 -6.512685 15.749714 1.555052 -11.402978 -13.849209 0.000000 -0.000000 0.000000 2.736110 -1.833646 8.776573 0.597171 -2.739869 -2.498657 -1.287937 -2.943427 2.952861 -1.584786 5.219347 -4.543303 -3.378813 2.305124 6.251522 -25.195732 6.851403 2.568040 -55.443991 -8.486858 10.420950 1.869964 -36.104446 16.202281 -7.161577 -3.022210 -6.561471 26.175136 -8.398665 1.803035 55.590884 -4.267281 6.777599 -12.807081 7.749816 -11.036433 10.562841 -0.418680 -9.395208 
0.628412 0.160063 0.993548 94.713360 -3.814111 91.630147 0.922799 0.451228 0.365439 -3.951867 -9.689680 6.263727 2.671656 6.643806 -11.367487 0.000000 -0.000000 0.000000 -2.471674 -5.096138 -5.194440 1.122361 -6.236406 15.772645 1.575999 -11.288310 -14.006033 0.000000 -0.000000 0.000000 2.754788 -1.892119 9.117480 0.547828 -2.740739 -2.862315 -1.345368 -3.240875 2.874991 -1.490927 5.325574 -4.534092 -3.232639 2.497553 6.418218 -25.101004 7.289817 2.443798 -55.224015 -8.281130 10.182007 1.549746 -36.035549 16.568240 -7.128494 -3.203192 -6.282025 25.694682 -9.163628 1.867527 55.502095 -5.324715 6.675002 -12.572788 7.666433 -10.695100 10.686518 -0.348291 -9.088969 
0.629751 0.159194 0.993428 94.360506 -3.818218 91.614745 1.008614 0.536481 0.542044 -3.984819 -9.652483 6.173235 2.563671 6.815674 -11.464745 0.000000 -0.000000 0.000000 -2.410345 -5.151349 -5.083446 1.113999 -6.155013 15.755839 1.570183 -11.047230 -14.127282 0.000000 -0.000000 0.000000 2.719160 -1.933159 9.172227 0.492953 -2.843243 -2.553747 -1.329100 -3.115700 2.906965 -1.485608 4.983982 -4.308336 -2.880023 2.535406 6.353743 -25.116646 7.073646 2.372593 -54.902779 -8.377933 10.028108 1.423453 -35.621749 16.527660 -7.178236 -3.121051 -6.020567 25.304312 -9.927374 1.364399 55.340270 -6.264053 6.283807 -12.303908 7.565055 -10.216687 11.117123 -0.370902 -9.119429 
0.630043 0.158251 0.993158 93.767723 -3.828845 91.620108 1.060822 0.278322 0.595916 -4.109773 -9.326259 6.248685 2.533871 7.307902 -11.386525 0.000000 -0.000000 0.000000 -2.445515 -4.946663 -5.234097 1.275703 -5.825689 15.990642 1.587029 -11.091586 -14.064534 0.000000 -0.000000 0.000000 2.709856 -1.968420 8.564294 0.437121 -2.999209 -1.871754 -1.539231 -3.147995 3.519602 -1.381724 4.980997 -4.110200 -2.580823 2.847642 6.016614 -25.180164 6.825022 2.535514 -54.574673 -8.758785 9.896453 1.910764 -35.312183 15.574073 -6.975439 -2.925792 -6.021453 24.967648 -9.912821 1.553479 55.518767 -6.374870 6.235645 -12.433289 7.367007 -10.192423 11.257261 -0.619758 -9.352058 
0.632054 0.157213 0.992949 93.050947 -3.784143 91.754137 1.149972 0.481445 0.914042 -4.091903 -9.229450 5.852404 2.574990 7.615078 -11.340375 0.000000 -0.000000 0.000000 -2.403238 -4.935625 -5.156390 1.448920 -5.449356 15.753484 1.485642 -10.890428 -14.115966 0.000000 -0.000000 0.000000 2.679969 -2.154584 8.691654 0.371734 -3.050596 -2.261038 -1.605545 -3.545926 3.378415 -1.107146 5.364793 -3.587958 -2.663237 3.241337 6.299097 -24.984972 7.424867 2.198220 -54.569051 -8.245017 9.756210 1.692696 -34.709437 15.466182 -7.011599 -3.042759 -6.011146 24.356522 -10.193344 2.084410 55.139658 -6.904255 6.474581 -11.977157 7.708161 -10.041260 11.364360 -0.827534 -9.335319 
0.631835 0.156044 0.992822 92.485841 -3.688229 91.783861 1.224170 0.724557 0.838958 -4.005609 -9.039248 6.052853 2.619298 7.789066 -11.418466 0.000000 -0.000000 0.000000 -2.239869 -4.839775 -5.272178 1.466429 -5.262354 15.822591 1.543165 -10.694539 -14.185158 0.000000 -0.000000 0.000000 2.761318 -2.365224 8.984343 0.244930 -3.164274 -2.593611 -1.744291 -3.621271 3.266187 -0.925000 5.440114 -3.131332 -2.507405 3.593572 6.624525 -24.884792 7.537540 2.267313 -54.424609 -8.122687 9.506127 1.726978 -34.247254 15.446056 -7.115086 -2.964202 -5.752599 23.824354 -10.413038 2.111319 54.972751 -7.240202 6.321954 -11.422261 7.471768 -9.916537 11.504001 -0.681879 -9.421967 
